<svg width="1200" height="800" viewBox="0 0 1200 800" fill="none" xmlns="http://www.w3.org/2000/svg">
  <rect width="1200" height="800" rx="48" fill="#F6F9FF"/>
  <circle cx="1024" cy="148" r="164" fill="#FEE2E2"/>
  <circle cx="170" cy="690" r="180" fill="#DBEAFE"/>
  <rect x="192" y="160" width="620" height="390" rx="34" fill="#1E293B"/>
  <rect x="220" y="188" width="564" height="334" rx="20" fill="url(#paint0_linear_1_2)"/>
  <rect x="410" y="560" width="184" height="24" rx="12" fill="#94A3B8"/>
  <rect x="360" y="584" width="286" height="26" rx="13" fill="#CBD5E1"/>
  <rect x="860" y="218" width="178" height="126" rx="26" fill="#FFFFFF"/>
  <rect x="888" y="252" width="122" height="16" rx="8" fill="#EF4444"/>
  <rect x="888" y="282" width="92" height="12" rx="6" fill="#CBD5E1"/>
  <rect x="888" y="306" width="72" height="12" rx="6" fill="#E2E8F0"/>
  <rect x="842" y="400" width="220" height="142" rx="32" fill="#FFFFFF"/>
  <rect x="872" y="432" width="160" height="78" rx="18" fill="#BFDBFE"/>
  <path d="M910 570H990" stroke="#94A3B8" stroke-width="18" stroke-linecap="round"/>
  <rect x="164" y="118" width="238" height="72" rx="36" fill="#FFFFFF" fill-opacity="0.72"/>
  <path d="M208 154H260" stroke="#EF4444" stroke-width="16" stroke-linecap="round"/>
  <path d="M288 154H374" stroke="#CBD5E1" stroke-width="16" stroke-linecap="round"/>
  <rect x="170" y="636" width="274" height="86" rx="32" fill="#FFFFFF" fill-opacity="0.88"/>
  <rect x="204" y="666" width="120" height="18" rx="9" fill="#1E293B"/>
  <rect x="204" y="694" width="82" height="14" rx="7" fill="#94A3B8"/>
  <defs>
    <linearGradient id="paint0_linear_1_2" x1="220" y1="188" x2="784" y2="522" gradientUnits="userSpaceOnUse">
      <stop stop-color="#BFDBFE"/>
      <stop offset="1" stop-color="#FBCFE8"/>
    </linearGradient>
  </defs>
</svg>
